<svg width="128" height="128" xmlns="http://www.w3.org/2000/svg"><linearGradient id="a" gradientUnits="userSpaceOnUse" x1="98.662" x2="98.662" y1="21.82" y2="120.893"><stop offset=".007" stop-color="#ffecb3"/><stop offset="1" stop-color="#ffe082"/></linearGradient><path d="M123.8 118.75l-6.18-16.49-4.25-11.35c-.96-2.93-2.59-5.59-4.77-7.77l-9.82-9.82-25.46 25.46 9.82 9.82c2.18 2.18 4.84 3.81 7.77 4.77l11.35 4.25 16.49 6.18c3.11 1.01 6.06-1.94 5.05-5.05z" fill="url(#a)"/><path d="M85.58 106.78l-.03-.03.03.03zm21.15-21.23l.21.21c-.07-.07-.12-.16-.19-.23l-.02.02z" fill="none"/><path d="M98.78 77.57l7.69 7.69c1.84 1.84 3.23 4.11 4.04 6.58l.02.06.02.06 4.25 11.35 6.15 16.41c.09.31.04.59-.14.84-.2.27-.49.43-.8.43-.09 0-.19-.01-.29-.04l-16.41-6.15-11.35-4.25-.06-.02-.06-.02c-2.47-.81-4.74-2.2-6.58-4.04l-7.69-7.69 21.21-21.21m0-4.25L73.32 98.78l9.82 9.82c2.18 2.18 4.84 3.81 7.77 4.77l11.35 4.25 16.49 6.18c.43.14.85.2 1.26.2 2.58 0 4.66-2.56 3.78-5.25l-6.18-16.49-4.25-11.35c-.96-2.93-2.59-5.59-4.77-7.77l-9.81-9.82z" fill="#424242" opacity=".2"/><linearGradient id="b" gradientUnits="userSpaceOnUse" x1="113.13" x2="113.13" y1="80.167" y2="122.667"><stop offset="0" stop-color="#757575"/><stop offset="1" stop-color="#424242"/></linearGradient><path d="M123.8 118.75l-6.18-16.49c-3.22 1.6-6.25 3.73-8.94 6.42a33.86 33.86 0 00-6.42 8.94l16.49 6.18c3.11 1.01 6.06-1.94 5.05-5.05z" fill="url(#b)"/><path d="M116.04 106.59l4.92 13.13c.09.31.04.59-.14.84-.2.27-.49.43-.8.43-.09 0-.19-.01-.29-.04l-13.13-4.92c1.21-1.89 2.61-3.64 4.21-5.24 1.58-1.58 3.34-2.99 5.23-4.2m1.58-4.33c-3.22 1.6-6.25 3.73-8.94 6.42a33.86 33.86 0 00-6.42 8.94l16.49 6.18c.43.14.85.2 1.26.2 2.58 0 4.66-2.56 3.78-5.25l-6.17-16.49z" fill="#eee" opacity=".2"/><linearGradient id="c" gradientUnits="userSpaceOnUse" x1="34.627" x2="34.627" y1="12.25" y2="55.263"><stop offset="0" stop-color="#e0e0e0"/><stop offset="1" stop-color="#9e9e9e"/></linearGradient><path fill="url(#c)" d="M51.6 26.14L26.14 51.6l-8.48-8.49 25.45-25.45z"/><path fill="#9e9e9e" d="M20.489 45.941l25.455-25.456 2.829 2.829-25.456 25.455z"/><linearGradient id="d" gradientUnits="userSpaceOnUse" x1="23.556" x2="23.556" y1="-1.833" y2="39.468"><stop offset="0" stop-color="#e57373"/><stop offset="1" stop-color="#f44336"/></linearGradient><path d="M43.11 17.66L17.66 43.11 6.34 31.8c-3.12-3.12-3.12-8.19 0-11.31L20.49 6.34c3.12-3.12 8.19-3.12 11.31 0l11.31 11.32z" fill="url(#d)"/><linearGradient id="e" gradientUnits="userSpaceOnUse" x1="65.102" x2="65.102" y1="16.167" y2="90.995"><stop offset="0" stop-color="#ffc107"/><stop offset="1" stop-color="#ffa000"/></linearGradient><path d="M33.68 44.06l10.37-10.37 52.37 52.37.09 2.04c.19 4.4-4.02 8.61-8.42 8.42l-2.04-.09-52.37-52.37z" fill="url(#e)"/><linearGradient id="f" gradientTransform="rotate(-45.001 30 62.245)" gradientUnits="userSpaceOnUse" x1="40.134" x2="40.134" y1="41.5" y2="113.002"><stop offset="0" stop-color="#ffca28"/><stop offset="1" stop-color="#ffb300"/></linearGradient><path d="M26.14 51.6l54.7 54.7c3.07-1.29 5.45-4.5 5.3-7.83l-.09-2.04-52.37-52.37-7.54 7.54z" fill="url(#f)"/><linearGradient id="g" gradientTransform="rotate(-45.001 30 62.245)" gradientUnits="userSpaceOnUse" x1="65.467" x2="65.467" y1="41.5" y2="113.002"><stop offset="0" stop-color="#ffca28"/><stop offset="1" stop-color="#ffb300"/></linearGradient><path d="M44.06 33.68l52.37 52.37 2.04.09c3.33.14 6.55-2.23 7.83-5.3l-54.7-54.7-7.54 7.54z" fill="url(#g)"/><path d="M26.14 7c1.34 0 2.59.52 3.54 1.46l11.31 11.31 8.49 8.49 53.03 53.03c-1.01 1.12-2.42 1.86-3.75 1.86h-.16l-2.04-.09h-.13c-.79 0-1.56.31-2.12.88-.59.59-.91 1.41-.88 2.25l.09 2.04c.05 1.22-.5 2.52-1.52 3.58-1.03 1.07-2.38 1.71-3.62 1.71h-.16l-2.04-.09h-.13c-.79 0-1.56.31-2.12.88-.59.59-.91 1.41-.88 2.25l.09 2.04c.06 1.39-.68 2.87-1.85 3.91L28.26 49.48l-8.49-8.49L8.46 29.68C7.52 28.73 7 27.48 7 26.14c0-1.34.52-2.59 1.46-3.54L22.61 8.46A4.97 4.97 0 0126.14 7m0-3c-2.05 0-4.09.78-5.66 2.34L6.34 20.49c-3.12 3.12-3.12 8.19 0 11.31l11.31 11.31 8.49 8.49 54.7 54.7c3.07-1.29 5.45-4.5 5.3-7.83l-.09-2.04 2.04.09c.1 0 .19.01.29.01 4.29 0 8.32-4.12 8.13-8.43l-.09-2.04 2.04.09c.1 0 .19.01.29.01 3.23 0 6.29-2.33 7.54-5.31l-54.7-54.7-8.49-8.49L31.8 6.34A7.98 7.98 0 0026.14 4z" fill="#424242" opacity=".2"/></svg>