<svg xmlns="http://www.w3.org/2000/svg" version="1.1" id="Layer_1" x="0" y="0" viewBox="0 0 1000 200" xml:space="preserve" width="1000" height="200"><style type="text/css" id="style2">.st0{fill:#767171}.st1{fill:#4486f6}.st2,.st3{fill:none;stroke:#4486f6;stroke-miterlimit:10}.st3{stroke:#767171;stroke-width:.5}</style><g id="g54" transform="translate(-12.187 -284.253)"><g id="g14"><path class="st0" d="M23.8 438.79c1.67.53 3.24 1.04 4.9 1.56 10.77-31.65 21.44-63.05 32.12-94.44l.64.03c10.98 31.45 21.96 62.89 32.98 94.44 1.75-.58 3.27-1.08 4.89-1.62-12.77-36.6-25.47-72.98-38.27-109.65-12.48 36.74-24.84 73.12-37.26 109.68" id="path4" fill="#767171"/><path class="st1" d="M78.87 333.28c12.06 35.86 24.02 71.39 36.02 107.05 1.63-.55 3.09-1.05 4.58-1.55-12.04-35.79-24-71.33-36.01-107.02-1.6.53-3.01 1-4.59 1.52" id="path6" fill="#4486f6"/><path class="st2" d="M78.87 333.28c12.06 35.86 24.02 71.39 36.02 107.05 1.63-.55 3.09-1.05 4.58-1.55-12.04-35.79-24-71.33-36.01-107.02-1.6.53-3.01 1-4.59 1.52z" id="path8" fill="none" stroke="#4486f6" stroke-miterlimit="10"/><path class="st0" id="rect10" fill="#767171" d="M133.94 358.79h9.65v10.04h-9.65z"/><path class="st0" id="rect12" fill="#767171" d="M133.91 414.7h9.65v10.1h-9.65z"/></g><g id="g52"><path class="st1" d="M240.19 386c-6.39-3.11-13.12-5.12-20-6.74-6.24-1.47-12.34-3.27-18-6.43-11.2-6.24-11.54-23.68-3.92-31.32 4.8-4.81 10.71-6.64 17.28-7.31 12.99-1.32 23.26 4.42 28.62 16.31.61 1.36 1.18 2.74 1.8 4.21 2.09-.84 4.01-1.61 5.92-2.37-3.05-9.54-10.2-17.68-18.63-21.28-6.97-2.98-14.25-3.2-21.6-2.19-12.71 1.74-23.83 10.78-24.88 23.84-.89 11.07 2.24 20.17 12.51 25.48 4.99 2.58 10.44 4.35 15.79 6.16 6.42 2.16 13.07 3.66 19.42 5.99 8.98 3.29 13.41 10.14 13.56 19.65.14 8.98-3.27 16.61-12.52 20.9-5.59 2.59-11.55 3.1-17.6 3.01-12.84-.2-23.51-7.69-28.01-19.65-.41-1.08-.78-2.17-1.2-3.35-2.14.88-4.08 1.68-6.14 2.52 3.72 11.38 10.93 19.43 20.98 23.42 8.5 3.38 17.31 3.48 26.13 1.85 13.47-2.49 25.48-11.79 24.89-29.59-.33-10.64-4.71-18.39-14.4-23.11" id="path16" fill="#4486f6"/><path class="st2" d="M240.19 386c-6.39-3.11-13.12-5.12-20-6.74-6.24-1.47-12.34-3.27-18-6.43-11.2-6.24-11.54-23.68-3.92-31.32 4.8-4.81 10.71-6.64 17.28-7.31 12.99-1.32 23.26 4.42 28.62 16.31.61 1.36 1.18 2.74 1.8 4.21 2.09-.84 4.01-1.61 5.92-2.37-3.05-9.54-10.2-17.68-18.63-21.28-6.97-2.98-14.25-3.2-21.6-2.19-12.71 1.74-23.83 10.78-24.88 23.84-.89 11.07 2.24 20.17 12.51 25.48 4.99 2.58 10.44 4.35 15.79 6.16 6.42 2.16 13.07 3.66 19.42 5.99 8.98 3.29 13.41 10.14 13.56 19.65.14 8.98-3.27 16.61-12.52 20.9-5.59 2.59-11.55 3.1-17.6 3.01-12.84-.2-23.51-7.69-28.01-19.65-.41-1.08-.78-2.17-1.2-3.35-2.14.88-4.08 1.68-6.14 2.52 3.72 11.38 10.93 19.43 20.98 23.42 8.5 3.38 17.31 3.48 26.13 1.85 13.47-2.49 25.48-11.79 24.89-29.59-.33-10.64-4.71-18.39-14.4-23.11z" id="path18" fill="none" stroke="#4486f6" stroke-miterlimit="10"/><path class="st1" d="M1000.02 407.82c-.5-10.33-5.24-17.79-14.67-21.85-5.78-2.49-11.82-4.49-17.88-6.21-6.72-1.91-13.52-3.44-19.73-6.88-11.32-6.28-11.61-23.84-3.9-31.44 4.78-4.72 10.62-6.56 17.12-7.21 13.16-1.32 23.34 4.4 28.74 16.41.59 1.31 1.13 2.65 1.74 4.09 2.04-.8 3.98-1.57 6.05-2.38-3.55-8.97-8.65-16.37-17.4-20.65-7.34-3.6-15.16-3.9-23.05-2.78-13.04 1.85-23.73 11.14-24.75 23.74-.9 11.04 2.22 20.23 12.43 25.52 4.99 2.59 10.43 4.38 15.78 6.18 6.42 2.16 13.07 3.66 19.43 5.98 8.88 3.25 13.38 9.94 13.62 19.4.24 9.21-3.33 16.9-12.43 21.14-5.59 2.61-11.54 3.12-17.6 3.04-12.9-.17-23.7-7.74-28.14-19.76-.38-1.04-.73-2.08-1.12-3.24-2.09.85-4.04 1.64-6.21 2.53 3.79 10.86 10.22 19.06 20.96 23.38 8.1 3.26 16.5 3.34 24.96 2.11 5.63-.82 10.85-2.8 15.45-6.24 8.35-6.22 11.09-14.79 10.6-24.88" id="path20" fill="#4486f6"/><path class="st2" d="M1000.02 407.82c-.5-10.33-5.24-17.79-14.67-21.85-5.78-2.49-11.82-4.49-17.88-6.21-6.72-1.91-13.52-3.44-19.73-6.88-11.32-6.28-11.61-23.84-3.9-31.44 4.78-4.72 10.62-6.56 17.12-7.21 13.16-1.32 23.34 4.4 28.74 16.41.59 1.31 1.13 2.65 1.74 4.09 2.04-.8 3.98-1.57 6.05-2.38-3.55-8.97-8.65-16.37-17.4-20.65-7.34-3.6-15.16-3.9-23.05-2.78-13.04 1.85-23.73 11.14-24.75 23.74-.9 11.04 2.22 20.23 12.43 25.52 4.99 2.59 10.43 4.38 15.78 6.18 6.42 2.16 13.07 3.66 19.43 5.98 8.88 3.25 13.38 9.94 13.62 19.4.24 9.21-3.33 16.9-12.43 21.14-5.59 2.61-11.54 3.12-17.6 3.04-12.9-.17-23.7-7.74-28.14-19.76-.38-1.04-.73-2.08-1.12-3.24-2.09.85-4.04 1.64-6.21 2.53 3.79 10.86 10.22 19.06 20.96 23.38 8.1 3.26 16.5 3.34 24.96 2.11 5.63-.82 10.85-2.8 15.45-6.24 8.35-6.22 11.09-14.79 10.6-24.88z" id="path22" fill="none" stroke="#4486f6" stroke-miterlimit="10"/><path class="st1" d="M611.93 330.44c-2.51 0-4.54.09-6.56-.03-1.33-.08-2.2.42-3.07 1.35-16.84 17.91-33.7 35.81-50.6 53.68-1.92 2.03-4.1 3.8-6.22 5.74v-60.61h-5.87v106.89h5.9v-2.52c0-9.59.25-19.19-.1-28.77-.18-4.89.59-8.95 4.78-11.86.16-.11.25-.3.39-.45 5.1-5.26 10.2-10.52 15.44-15.93 1.24 1.69 2.41 3.26 3.56 4.85 12.85 17.79 25.68 35.58 38.56 53.35.45.62 1.21 1.35 1.88 1.41 2.15.18 4.33.07 6.94.07-15.83-21.48-31.38-42.58-46.99-63.77 13.94-14.42 27.79-28.74 41.96-43.4" id="path24" fill="#4486f6"/><path class="st2" d="M611.93 330.44c-2.51 0-4.54.09-6.56-.03-1.33-.08-2.2.42-3.07 1.35-16.84 17.91-33.7 35.81-50.6 53.68-1.92 2.03-4.1 3.8-6.22 5.74v-60.61h-5.87v106.89h5.9v-2.52c0-9.59.25-19.19-.1-28.77-.18-4.89.59-8.95 4.78-11.86.16-.11.25-.3.39-.45 5.1-5.26 10.2-10.52 15.44-15.93 1.24 1.69 2.41 3.26 3.56 4.85 12.85 17.79 25.68 35.58 38.56 53.35.45.62 1.21 1.35 1.88 1.41 2.15.18 4.33.07 6.94.07-15.83-21.48-31.38-42.58-46.99-63.77 13.94-14.42 27.79-28.74 41.96-43.4z" id="path26" fill="none" stroke="#4486f6" stroke-miterlimit="10"/><path class="st1" d="M511.7 412.28c-7.01 20.66-30.77 28.56-48.32 15.97-7.89-5.66-12.52-13.63-15.26-22.78-3.16-10.56-3.48-21.36-2.25-32.2 1.1-9.65 4.19-18.59 10.1-26.5 11.09-14.87 30.46-15.24 41.79-8.64 7.13 4.15 11.01 10.81 13.55 18.4.28.84.59 1.67.92 2.59 2.12-.78 4.01-1.48 6.04-2.23-.53-1.44-.96-2.68-1.45-3.9-8.35-20.59-26.38-28.11-45.66-23.21-12.5 3.17-20.55 11.98-26.17 23.17-3.97 7.91-5.65 16.45-6.15 25.22-.71 12.48.39 24.74 5.83 36.19 9.95 20.93 27.21 28.93 48.14 23.93 14.32-3.42 21.73-13.98 26.3-27.3-2.05-.96-3.95-1.85-6.07-2.85-.49 1.51-.9 2.83-1.34 4.14" id="path28" fill="#4486f6"/><path class="st2" d="M511.7 412.28c-7.01 20.66-30.77 28.56-48.32 15.97-7.89-5.66-12.52-13.63-15.26-22.78-3.16-10.56-3.48-21.36-2.25-32.2 1.1-9.65 4.19-18.59 10.1-26.5 11.09-14.87 30.46-15.24 41.79-8.64 7.13 4.15 11.01 10.81 13.55 18.4.28.84.59 1.67.92 2.59 2.12-.78 4.01-1.48 6.04-2.23-.53-1.44-.96-2.68-1.45-3.9-8.35-20.59-26.38-28.11-45.66-23.21-12.5 3.17-20.55 11.98-26.17 23.17-3.97 7.91-5.65 16.45-6.15 25.22-.71 12.48.39 24.74 5.83 36.19 9.95 20.93 27.21 28.93 48.14 23.93 14.32-3.42 21.73-13.98 26.3-27.3-2.05-.96-3.95-1.85-6.07-2.85-.49 1.51-.9 2.83-1.34 4.14z" id="path30" fill="none" stroke="#4486f6" stroke-miterlimit="10"/><path class="st0" d="M753.02 438c1.72.55 3.25 1.04 4.9 1.56 10.75-31.59 21.43-63.01 32.11-94.42l.63-.03c10.99 31.48 21.99 62.97 33 94.48 1.77-.59 3.25-1.08 4.88-1.63-12.77-36.59-25.48-73.02-38.27-109.65-12.46 36.72-24.83 73.14-37.25 109.69" id="path32" fill="#767171"/><path class="st3" d="M753.02 438c1.72.55 3.25 1.04 4.9 1.56 10.75-31.59 21.43-63.01 32.11-94.42l.63-.03c10.99 31.48 21.99 62.97 33 94.48 1.77-.59 3.25-1.08 4.88-1.63-12.77-36.59-25.48-73.02-38.27-109.65-12.46 36.72-24.83 73.14-37.25 109.69z" id="path34" fill="none" stroke="#767171" stroke-width=".5" stroke-miterlimit="10"/><path class="st0" d="M350.51 438.78c1.65.54 3.19 1.04 4.89 1.59 10.74-31.58 21.44-63.02 32.13-94.47.21.02.43.03.64.05 10.98 31.45 21.96 62.9 32.97 94.43 1.72-.56 3.2-1.05 4.89-1.61-12.79-36.64-25.48-73.02-38.27-109.66-12.47 36.71-24.83 73.11-37.25 109.67" id="path36" fill="#767171"/><path class="st3" d="M350.51 438.78c1.65.54 3.19 1.04 4.89 1.59 10.74-31.58 21.44-63.02 32.13-94.47.21.02.43.03.64.05 10.98 31.45 21.96 62.9 32.97 94.43 1.72-.56 3.2-1.05 4.89-1.61-12.79-36.64-25.48-73.02-38.27-109.66-12.47 36.71-24.83 73.11-37.25 109.67z" id="path38" fill="none" stroke="#767171" stroke-width=".5" stroke-miterlimit="10"/><path class="st1" id="polygon40" fill="#4486f6" d="M342.43 330.55h-76.89v5.12h35.45v101.78h6.02V335.59h35.42z"/><path class="st2" id="polygon42" fill="none" stroke="#4486f6" stroke-miterlimit="10" d="M342.43 330.55h-76.89v5.12h35.45v101.78h6.02V335.59h35.42z"/><path class="st1" id="polygon44" fill="#4486f6" d="M683.2 330.58h-5.83V437.5h62.02v-5.04H683.2z"/><path class="st2" id="polygon46" fill="none" stroke="#4486f6" stroke-miterlimit="10" d="M683.2 330.58h-5.83V437.5h62.02v-5.04H683.2z"/><path class="st1" d="M899.62 385.47c-4.57-2.47-9.54-3.65-14.68-4.71 1.12-.25 2.24-.48 3.35-.74 7.34-1.74 13.84-4.86 18.07-11.48 3.38-5.29 3.8-11.17 2.98-17.19-1.12-8.31-5.4-14.33-13.26-17.58-5.57-2.3-11.43-3.25-17.41-3.3-11.57-.09-23.15-.03-34.72-.02-.5 0-1 .09-1.44.13V437.6c11.73 0 23.3.06 34.87-.04 3.49-.03 7.02-.22 10.44-.84 13.17-2.39 23.48-10.05 24.99-24.91 1.1-10.86-2.2-20.41-13.19-26.34m-51.11-49.89h2.23c8.73.04 17.47-.16 26.18.21 4.77.2 9.58.99 14.22 2.14 6.66 1.65 10.41 6.27 11.77 13 2 9.93-1.75 18.54-10.54 23-2.96 1.5-6.23 2.62-9.49 3.27-3.86.77-7.85 1.08-11.8 1.18-7.46.17-14.93.05-22.58.05v-42.85zm40.92 95.21c-4.27 1.01-8.74 1.44-13.14 1.54-9.18.23-18.38.07-27.73.07v-48.88c12.42.55 24.77-1.03 36.92 1.67 5.91 1.31 11.31 3.76 15.47 8.3 11.61 12.66 5.27 33.32-11.52 37.3" id="path48" fill="#4486f6"/><path class="st2" d="M899.62 385.47c-4.57-2.47-9.54-3.65-14.68-4.71 1.12-.25 2.24-.48 3.35-.74 7.34-1.74 13.84-4.86 18.07-11.48 3.38-5.29 3.8-11.17 2.98-17.19-1.12-8.31-5.4-14.33-13.26-17.58-5.57-2.3-11.43-3.25-17.41-3.3-11.57-.09-23.15-.03-34.72-.02-.5 0-1 .09-1.44.13V437.6c11.73 0 23.3.06 34.87-.04 3.49-.03 7.02-.22 10.44-.84 13.17-2.39 23.48-10.05 24.99-24.91 1.1-10.86-2.2-20.41-13.19-26.34zm-51.11-49.89h2.23c8.73.04 17.47-.16 26.18.21 4.77.2 9.58.99 14.22 2.14 6.66 1.65 10.41 6.27 11.77 13 2 9.93-1.75 18.54-10.54 23-2.96 1.5-6.23 2.62-9.49 3.27-3.86.77-7.85 1.08-11.8 1.18-7.46.17-14.93.05-22.58.05v-42.85zm40.92 95.21c-4.27 1.01-8.74 1.44-13.14 1.54-9.18.23-18.38.07-27.73.07v-48.88c12.42.55 24.77-1.03 36.92 1.67 5.91 1.31 11.31 3.76 15.47 8.3 11.61 12.66 5.27 33.32-11.52 37.3z" id="path50" fill="none" stroke="#4486f6" stroke-miterlimit="10"/></g></g></svg>