<svg xmlns="http://www.w3.org/2000/svg" height="150" width="150" xml:space="preserve" viewBox="0 0 150 150" y="0" x="0" id="Layer_1" version="1.1"><style id="style2" type="text/css">.st0{fill:#767171}</style><g transform="translate(-23.079 -373.303) scale(1.1721)" id="g14"><path class="st0" d="M23.8 438.79c1.67.53 3.24 1.04 4.9 1.56 10.77-31.65 21.44-63.05 32.12-94.44l.64.03c10.98 31.45 21.96 62.89 32.98 94.44 1.75-.58 3.27-1.08 4.89-1.62-12.77-36.6-25.47-72.98-38.27-109.65-12.48 36.74-24.84 73.12-37.26 109.68" id="path4" fill="#767171" stroke="#767171" stroke-width="5" stroke-linecap="round" stroke-miterlimit="4" stroke-dasharray="none" stroke-opacity="1"/><path class="st0" id="rect10" fill="#767171" stroke="#767171" stroke-width="5" stroke-miterlimit="4" stroke-dasharray="none" stroke-opacity="1" d="M133.94 358.79h9.65v10.04h-9.65z"/><path class="st0" id="rect12" fill="#767171" stroke="#767171" stroke-width="5" stroke-miterlimit="4" stroke-dasharray="none" stroke-opacity="1" d="M133.91 402.756h9.65v10.1h-9.65z"/></g><path d="M67.376 8.709l49.863 134.167 5.369-1.808L72.756 6.936z" id="path8" fill="none" stroke="#4486f6" stroke-width="5.846" stroke-miterlimit="10" stroke-dasharray="none"/></svg>